M48
; DRILL file {KiCad 9.0.1} date 2025-07-17T12:26:56-0300
; FORMAT={-:-/ absolute / metric / decimal}
; #@! TF.CreationDate,2025-07-17T12:26:56-03:00
; #@! TF.GenerationSoftware,Kicad,Pcbnew,9.0.1
; #@! TF.FileFunction,Plated,1,2,PTH
FMAT,2
METRIC
; #@! TA.AperFunction,Plated,PTH,ComponentDrill
T1C1.000
; #@! TA.AperFunction,Plated,PTH,ComponentDrill
T2C1.300
%
G90
G05
T1
X133.5Y-118.58
X138.5Y-89.5
X143.5Y-89.5
X148.5Y-118.58
X162.56Y-104.14
X162.56Y-106.68
X162.56Y-109.22
X162.56Y-111.76
X162.56Y-121.92
X167.56Y-121.92
X177.825Y-101.63
X177.825Y-104.17
X177.825Y-106.71
X177.825Y-109.25
X177.825Y-111.79
T2
X107.8Y-107.5
X110.0Y-100.0
X116.92Y-124.46
X121.92Y-89.25
X121.92Y-111.75
X121.92Y-124.46
M30
