%TF.GenerationSoftware,KiCad,Pcbnew,9.0.1*%
%TF.CreationDate,2025-07-17T11:26:47-03:00*%
%TF.ProjectId,Monitor Atom,4d6f6e69-746f-4722-9041-746f6d2e6b69,rev?*%
%TF.SameCoordinates,Original*%
%TF.FileFunction,Legend,Top*%
%TF.FilePolarity,Positive*%
%FSLAX46Y46*%
G04 Gerber Fmt 4.6, Leading zero omitted, Abs format (unit mm)*
G04 Created by KiCad (PCBNEW 9.0.1) date 2025-07-17 11:26:47*
%MOMM*%
%LPD*%
G01*
G04 APERTURE LIST*
%ADD10C,0.300000*%
%ADD11C,0.100000*%
%ADD12C,0.150000*%
%ADD13C,0.010000*%
%ADD14C,0.120000*%
G04 APERTURE END LIST*
D10*
X134539510Y-126435828D02*
X134539510Y-127935828D01*
X134539510Y-126507257D02*
X134682368Y-126435828D01*
X134682368Y-126435828D02*
X134968082Y-126435828D01*
X134968082Y-126435828D02*
X135110939Y-126507257D01*
X135110939Y-126507257D02*
X135182368Y-126578685D01*
X135182368Y-126578685D02*
X135253796Y-126721542D01*
X135253796Y-126721542D02*
X135253796Y-127150114D01*
X135253796Y-127150114D02*
X135182368Y-127292971D01*
X135182368Y-127292971D02*
X135110939Y-127364400D01*
X135110939Y-127364400D02*
X134968082Y-127435828D01*
X134968082Y-127435828D02*
X134682368Y-127435828D01*
X134682368Y-127435828D02*
X134539510Y-127364400D01*
X135896653Y-127435828D02*
X135896653Y-126435828D01*
X135896653Y-126721542D02*
X135968082Y-126578685D01*
X135968082Y-126578685D02*
X136039511Y-126507257D01*
X136039511Y-126507257D02*
X136182368Y-126435828D01*
X136182368Y-126435828D02*
X136325225Y-126435828D01*
X137039510Y-127435828D02*
X136896653Y-127364400D01*
X136896653Y-127364400D02*
X136825224Y-127292971D01*
X136825224Y-127292971D02*
X136753796Y-127150114D01*
X136753796Y-127150114D02*
X136753796Y-126721542D01*
X136753796Y-126721542D02*
X136825224Y-126578685D01*
X136825224Y-126578685D02*
X136896653Y-126507257D01*
X136896653Y-126507257D02*
X137039510Y-126435828D01*
X137039510Y-126435828D02*
X137253796Y-126435828D01*
X137253796Y-126435828D02*
X137396653Y-126507257D01*
X137396653Y-126507257D02*
X137468082Y-126578685D01*
X137468082Y-126578685D02*
X137539510Y-126721542D01*
X137539510Y-126721542D02*
X137539510Y-127150114D01*
X137539510Y-127150114D02*
X137468082Y-127292971D01*
X137468082Y-127292971D02*
X137396653Y-127364400D01*
X137396653Y-127364400D02*
X137253796Y-127435828D01*
X137253796Y-127435828D02*
X137039510Y-127435828D01*
X137968082Y-126435828D02*
X138539510Y-126435828D01*
X138182367Y-127435828D02*
X138182367Y-126150114D01*
X138182367Y-126150114D02*
X138253796Y-126007257D01*
X138253796Y-126007257D02*
X138396653Y-125935828D01*
X138396653Y-125935828D02*
X138539510Y-125935828D01*
X139610939Y-127364400D02*
X139468082Y-127435828D01*
X139468082Y-127435828D02*
X139182368Y-127435828D01*
X139182368Y-127435828D02*
X139039510Y-127364400D01*
X139039510Y-127364400D02*
X138968082Y-127221542D01*
X138968082Y-127221542D02*
X138968082Y-126650114D01*
X138968082Y-126650114D02*
X139039510Y-126507257D01*
X139039510Y-126507257D02*
X139182368Y-126435828D01*
X139182368Y-126435828D02*
X139468082Y-126435828D01*
X139468082Y-126435828D02*
X139610939Y-126507257D01*
X139610939Y-126507257D02*
X139682368Y-126650114D01*
X139682368Y-126650114D02*
X139682368Y-126792971D01*
X139682368Y-126792971D02*
X138968082Y-126935828D01*
X141253796Y-125935828D02*
X142110939Y-125935828D01*
X141682367Y-127435828D02*
X141682367Y-125935828D01*
X142825224Y-127435828D02*
X142682367Y-127364400D01*
X142682367Y-127364400D02*
X142610938Y-127292971D01*
X142610938Y-127292971D02*
X142539510Y-127150114D01*
X142539510Y-127150114D02*
X142539510Y-126721542D01*
X142539510Y-126721542D02*
X142610938Y-126578685D01*
X142610938Y-126578685D02*
X142682367Y-126507257D01*
X142682367Y-126507257D02*
X142825224Y-126435828D01*
X142825224Y-126435828D02*
X143039510Y-126435828D01*
X143039510Y-126435828D02*
X143182367Y-126507257D01*
X143182367Y-126507257D02*
X143253796Y-126578685D01*
X143253796Y-126578685D02*
X143325224Y-126721542D01*
X143325224Y-126721542D02*
X143325224Y-127150114D01*
X143325224Y-127150114D02*
X143253796Y-127292971D01*
X143253796Y-127292971D02*
X143182367Y-127364400D01*
X143182367Y-127364400D02*
X143039510Y-127435828D01*
X143039510Y-127435828D02*
X142825224Y-127435828D01*
X144182367Y-127435828D02*
X144039510Y-127364400D01*
X144039510Y-127364400D02*
X143968081Y-127221542D01*
X143968081Y-127221542D02*
X143968081Y-125935828D01*
X144968081Y-127435828D02*
X144825224Y-127364400D01*
X144825224Y-127364400D02*
X144753795Y-127292971D01*
X144753795Y-127292971D02*
X144682367Y-127150114D01*
X144682367Y-127150114D02*
X144682367Y-126721542D01*
X144682367Y-126721542D02*
X144753795Y-126578685D01*
X144753795Y-126578685D02*
X144825224Y-126507257D01*
X144825224Y-126507257D02*
X144968081Y-126435828D01*
X144968081Y-126435828D02*
X145182367Y-126435828D01*
X145182367Y-126435828D02*
X145325224Y-126507257D01*
X145325224Y-126507257D02*
X145396653Y-126578685D01*
X145396653Y-126578685D02*
X145468081Y-126721542D01*
X145468081Y-126721542D02*
X145468081Y-127150114D01*
X145468081Y-127150114D02*
X145396653Y-127292971D01*
X145396653Y-127292971D02*
X145325224Y-127364400D01*
X145325224Y-127364400D02*
X145182367Y-127435828D01*
X145182367Y-127435828D02*
X144968081Y-127435828D01*
X146753796Y-127364400D02*
X146610938Y-127435828D01*
X146610938Y-127435828D02*
X146325224Y-127435828D01*
X146325224Y-127435828D02*
X146182367Y-127364400D01*
X146182367Y-127364400D02*
X146110938Y-127292971D01*
X146110938Y-127292971D02*
X146039510Y-127150114D01*
X146039510Y-127150114D02*
X146039510Y-126721542D01*
X146039510Y-126721542D02*
X146110938Y-126578685D01*
X146110938Y-126578685D02*
X146182367Y-126507257D01*
X146182367Y-126507257D02*
X146325224Y-126435828D01*
X146325224Y-126435828D02*
X146610938Y-126435828D01*
X146610938Y-126435828D02*
X146753796Y-126507257D01*
X147396652Y-127435828D02*
X147396652Y-125935828D01*
X147539510Y-126864400D02*
X147968081Y-127435828D01*
X147968081Y-126435828D02*
X147396652Y-127007257D01*
X149253796Y-127435828D02*
X149253796Y-126650114D01*
X149253796Y-126650114D02*
X149182367Y-126507257D01*
X149182367Y-126507257D02*
X149039510Y-126435828D01*
X149039510Y-126435828D02*
X148753796Y-126435828D01*
X148753796Y-126435828D02*
X148610938Y-126507257D01*
X149253796Y-127364400D02*
X149110938Y-127435828D01*
X149110938Y-127435828D02*
X148753796Y-127435828D01*
X148753796Y-127435828D02*
X148610938Y-127364400D01*
X148610938Y-127364400D02*
X148539510Y-127221542D01*
X148539510Y-127221542D02*
X148539510Y-127078685D01*
X148539510Y-127078685D02*
X148610938Y-126935828D01*
X148610938Y-126935828D02*
X148753796Y-126864400D01*
X148753796Y-126864400D02*
X149110938Y-126864400D01*
X149110938Y-126864400D02*
X149253796Y-126792971D01*
D11*
X157480000Y-91440000D02*
X182880000Y-91440000D01*
X182880000Y-116840000D01*
X157480000Y-116840000D01*
X157480000Y-91440000D01*
D10*
X167488082Y-93987257D02*
X168202368Y-93987257D01*
X167345225Y-94415828D02*
X167845225Y-92915828D01*
X167845225Y-92915828D02*
X168345225Y-94415828D01*
X168630939Y-92915828D02*
X169488082Y-92915828D01*
X169059510Y-94415828D02*
X169059510Y-92915828D01*
X170273796Y-92915828D02*
X170559510Y-92915828D01*
X170559510Y-92915828D02*
X170702367Y-92987257D01*
X170702367Y-92987257D02*
X170845224Y-93130114D01*
X170845224Y-93130114D02*
X170916653Y-93415828D01*
X170916653Y-93415828D02*
X170916653Y-93915828D01*
X170916653Y-93915828D02*
X170845224Y-94201542D01*
X170845224Y-94201542D02*
X170702367Y-94344400D01*
X170702367Y-94344400D02*
X170559510Y-94415828D01*
X170559510Y-94415828D02*
X170273796Y-94415828D01*
X170273796Y-94415828D02*
X170130939Y-94344400D01*
X170130939Y-94344400D02*
X169988081Y-94201542D01*
X169988081Y-94201542D02*
X169916653Y-93915828D01*
X169916653Y-93915828D02*
X169916653Y-93415828D01*
X169916653Y-93415828D02*
X169988081Y-93130114D01*
X169988081Y-93130114D02*
X170130939Y-92987257D01*
X170130939Y-92987257D02*
X170273796Y-92915828D01*
X171559510Y-94415828D02*
X171559510Y-92915828D01*
X171559510Y-92915828D02*
X172059510Y-93987257D01*
X172059510Y-93987257D02*
X172559510Y-92915828D01*
X172559510Y-92915828D02*
X172559510Y-94415828D01*
D12*
X115501009Y-100833333D02*
X115501009Y-101166666D01*
X116024819Y-101166666D02*
X115024819Y-101166666D01*
X115024819Y-101166666D02*
X115024819Y-100690476D01*
X116024819Y-99785714D02*
X116024819Y-100357142D01*
X116024819Y-100071428D02*
X115024819Y-100071428D01*
X115024819Y-100071428D02*
X115167676Y-100166666D01*
X115167676Y-100166666D02*
X115262914Y-100261904D01*
X115262914Y-100261904D02*
X115310533Y-100357142D01*
X105229819Y-104345238D02*
X104753628Y-104678571D01*
X105229819Y-104916666D02*
X104229819Y-104916666D01*
X104229819Y-104916666D02*
X104229819Y-104535714D01*
X104229819Y-104535714D02*
X104277438Y-104440476D01*
X104277438Y-104440476D02*
X104325057Y-104392857D01*
X104325057Y-104392857D02*
X104420295Y-104345238D01*
X104420295Y-104345238D02*
X104563152Y-104345238D01*
X104563152Y-104345238D02*
X104658390Y-104392857D01*
X104658390Y-104392857D02*
X104706009Y-104440476D01*
X104706009Y-104440476D02*
X104753628Y-104535714D01*
X104753628Y-104535714D02*
X104753628Y-104916666D01*
X104229819Y-104059523D02*
X105229819Y-103726190D01*
X105229819Y-103726190D02*
X104229819Y-103392857D01*
X105229819Y-102535714D02*
X105229819Y-103107142D01*
X105229819Y-102821428D02*
X104229819Y-102821428D01*
X104229819Y-102821428D02*
X104372676Y-102916666D01*
X104372676Y-102916666D02*
X104467914Y-103011904D01*
X104467914Y-103011904D02*
X104515533Y-103107142D01*
X177491666Y-98314819D02*
X177491666Y-99029104D01*
X177491666Y-99029104D02*
X177444047Y-99171961D01*
X177444047Y-99171961D02*
X177348809Y-99267200D01*
X177348809Y-99267200D02*
X177205952Y-99314819D01*
X177205952Y-99314819D02*
X177110714Y-99314819D01*
X177872619Y-98314819D02*
X178491666Y-98314819D01*
X178491666Y-98314819D02*
X178158333Y-98695771D01*
X178158333Y-98695771D02*
X178301190Y-98695771D01*
X178301190Y-98695771D02*
X178396428Y-98743390D01*
X178396428Y-98743390D02*
X178444047Y-98791009D01*
X178444047Y-98791009D02*
X178491666Y-98886247D01*
X178491666Y-98886247D02*
X178491666Y-99124342D01*
X178491666Y-99124342D02*
X178444047Y-99219580D01*
X178444047Y-99219580D02*
X178396428Y-99267200D01*
X178396428Y-99267200D02*
X178301190Y-99314819D01*
X178301190Y-99314819D02*
X178015476Y-99314819D01*
X178015476Y-99314819D02*
X177920238Y-99267200D01*
X177920238Y-99267200D02*
X177872619Y-99219580D01*
X162226666Y-100824819D02*
X162226666Y-101539104D01*
X162226666Y-101539104D02*
X162179047Y-101681961D01*
X162179047Y-101681961D02*
X162083809Y-101777200D01*
X162083809Y-101777200D02*
X161940952Y-101824819D01*
X161940952Y-101824819D02*
X161845714Y-101824819D01*
X162655238Y-100920057D02*
X162702857Y-100872438D01*
X162702857Y-100872438D02*
X162798095Y-100824819D01*
X162798095Y-100824819D02*
X163036190Y-100824819D01*
X163036190Y-100824819D02*
X163131428Y-100872438D01*
X163131428Y-100872438D02*
X163179047Y-100920057D01*
X163179047Y-100920057D02*
X163226666Y-101015295D01*
X163226666Y-101015295D02*
X163226666Y-101110533D01*
X163226666Y-101110533D02*
X163179047Y-101253390D01*
X163179047Y-101253390D02*
X162607619Y-101824819D01*
X162607619Y-101824819D02*
X163226666Y-101824819D01*
X154124819Y-90749285D02*
X153124819Y-90749285D01*
X153124819Y-90749285D02*
X153124819Y-90368333D01*
X153124819Y-90368333D02*
X153172438Y-90273095D01*
X153172438Y-90273095D02*
X153220057Y-90225476D01*
X153220057Y-90225476D02*
X153315295Y-90177857D01*
X153315295Y-90177857D02*
X153458152Y-90177857D01*
X153458152Y-90177857D02*
X153553390Y-90225476D01*
X153553390Y-90225476D02*
X153601009Y-90273095D01*
X153601009Y-90273095D02*
X153648628Y-90368333D01*
X153648628Y-90368333D02*
X153648628Y-90749285D01*
X154077200Y-89796904D02*
X154124819Y-89654047D01*
X154124819Y-89654047D02*
X154124819Y-89415952D01*
X154124819Y-89415952D02*
X154077200Y-89320714D01*
X154077200Y-89320714D02*
X154029580Y-89273095D01*
X154029580Y-89273095D02*
X153934342Y-89225476D01*
X153934342Y-89225476D02*
X153839104Y-89225476D01*
X153839104Y-89225476D02*
X153743866Y-89273095D01*
X153743866Y-89273095D02*
X153696247Y-89320714D01*
X153696247Y-89320714D02*
X153648628Y-89415952D01*
X153648628Y-89415952D02*
X153601009Y-89606428D01*
X153601009Y-89606428D02*
X153553390Y-89701666D01*
X153553390Y-89701666D02*
X153505771Y-89749285D01*
X153505771Y-89749285D02*
X153410533Y-89796904D01*
X153410533Y-89796904D02*
X153315295Y-89796904D01*
X153315295Y-89796904D02*
X153220057Y-89749285D01*
X153220057Y-89749285D02*
X153172438Y-89701666D01*
X153172438Y-89701666D02*
X153124819Y-89606428D01*
X153124819Y-89606428D02*
X153124819Y-89368333D01*
X153124819Y-89368333D02*
X153172438Y-89225476D01*
X154124819Y-88273095D02*
X154124819Y-88844523D01*
X154124819Y-88558809D02*
X153124819Y-88558809D01*
X153124819Y-88558809D02*
X153267676Y-88654047D01*
X153267676Y-88654047D02*
X153362914Y-88749285D01*
X153362914Y-88749285D02*
X153410533Y-88844523D01*
X118411666Y-115659819D02*
X118411666Y-116374104D01*
X118411666Y-116374104D02*
X118364047Y-116516961D01*
X118364047Y-116516961D02*
X118268809Y-116612200D01*
X118268809Y-116612200D02*
X118125952Y-116659819D01*
X118125952Y-116659819D02*
X118030714Y-116659819D01*
X119411666Y-116659819D02*
X118840238Y-116659819D01*
X119125952Y-116659819D02*
X119125952Y-115659819D01*
X119125952Y-115659819D02*
X119030714Y-115802676D01*
X119030714Y-115802676D02*
X118935476Y-115897914D01*
X118935476Y-115897914D02*
X118840238Y-115945533D01*
X164893333Y-126029580D02*
X164845714Y-126077200D01*
X164845714Y-126077200D02*
X164702857Y-126124819D01*
X164702857Y-126124819D02*
X164607619Y-126124819D01*
X164607619Y-126124819D02*
X164464762Y-126077200D01*
X164464762Y-126077200D02*
X164369524Y-125981961D01*
X164369524Y-125981961D02*
X164321905Y-125886723D01*
X164321905Y-125886723D02*
X164274286Y-125696247D01*
X164274286Y-125696247D02*
X164274286Y-125553390D01*
X164274286Y-125553390D02*
X164321905Y-125362914D01*
X164321905Y-125362914D02*
X164369524Y-125267676D01*
X164369524Y-125267676D02*
X164464762Y-125172438D01*
X164464762Y-125172438D02*
X164607619Y-125124819D01*
X164607619Y-125124819D02*
X164702857Y-125124819D01*
X164702857Y-125124819D02*
X164845714Y-125172438D01*
X164845714Y-125172438D02*
X164893333Y-125220057D01*
X165845714Y-126124819D02*
X165274286Y-126124819D01*
X165560000Y-126124819D02*
X165560000Y-125124819D01*
X165560000Y-125124819D02*
X165464762Y-125267676D01*
X165464762Y-125267676D02*
X165369524Y-125362914D01*
X165369524Y-125362914D02*
X165274286Y-125410533D01*
D13*
%TO.C,REF\u002A\u002A*%
X168670807Y-87726782D02*
X168694161Y-87736988D01*
X168749902Y-87781134D01*
X168797569Y-87844967D01*
X168827048Y-87913087D01*
X168831846Y-87946670D01*
X168815760Y-87993556D01*
X168780475Y-88018365D01*
X168742644Y-88033387D01*
X168725321Y-88036155D01*
X168716886Y-88016066D01*
X168700230Y-87972351D01*
X168692923Y-87952598D01*
X168651948Y-87884271D01*
X168592622Y-87850191D01*
X168516552Y-87851239D01*
X168510918Y-87852581D01*
X168470305Y-87871836D01*
X168440448Y-87909375D01*
X168420055Y-87969809D01*
X168407836Y-88057751D01*
X168402500Y-88177813D01*
X168402000Y-88241698D01*
X168401752Y-88342403D01*
X168400126Y-88411054D01*
X168395801Y-88454673D01*
X168387454Y-88480282D01*
X168373765Y-88494903D01*
X168353411Y-88505558D01*
X168352234Y-88506095D01*
X168313038Y-88522667D01*
X168293619Y-88528769D01*
X168290635Y-88510319D01*
X168288081Y-88459323D01*
X168286140Y-88382308D01*
X168284997Y-88285805D01*
X168284769Y-88215184D01*
X168285932Y-88078525D01*
X168290479Y-87974851D01*
X168299999Y-87898108D01*
X168316081Y-87842246D01*
X168340313Y-87801212D01*
X168374286Y-87768954D01*
X168407833Y-87746440D01*
X168488499Y-87716476D01*
X168582381Y-87709718D01*
X168670807Y-87726782D01*
G36*
X168670807Y-87726782D02*
G01*
X168694161Y-87736988D01*
X168749902Y-87781134D01*
X168797569Y-87844967D01*
X168827048Y-87913087D01*
X168831846Y-87946670D01*
X168815760Y-87993556D01*
X168780475Y-88018365D01*
X168742644Y-88033387D01*
X168725321Y-88036155D01*
X168716886Y-88016066D01*
X168700230Y-87972351D01*
X168692923Y-87952598D01*
X168651948Y-87884271D01*
X168592622Y-87850191D01*
X168516552Y-87851239D01*
X168510918Y-87852581D01*
X168470305Y-87871836D01*
X168440448Y-87909375D01*
X168420055Y-87969809D01*
X168407836Y-88057751D01*
X168402500Y-88177813D01*
X168402000Y-88241698D01*
X168401752Y-88342403D01*
X168400126Y-88411054D01*
X168395801Y-88454673D01*
X168387454Y-88480282D01*
X168373765Y-88494903D01*
X168353411Y-88505558D01*
X168352234Y-88506095D01*
X168313038Y-88522667D01*
X168293619Y-88528769D01*
X168290635Y-88510319D01*
X168288081Y-88459323D01*
X168286140Y-88382308D01*
X168284997Y-88285805D01*
X168284769Y-88215184D01*
X168285932Y-88078525D01*
X168290479Y-87974851D01*
X168299999Y-87898108D01*
X168316081Y-87842246D01*
X168340313Y-87801212D01*
X168374286Y-87768954D01*
X168407833Y-87746440D01*
X168488499Y-87716476D01*
X168582381Y-87709718D01*
X168670807Y-87726782D01*
G37*
X163371664Y-87685089D02*
X163434367Y-87721358D01*
X163477961Y-87757358D01*
X163509845Y-87795075D01*
X163531810Y-87841199D01*
X163545649Y-87902421D01*
X163553153Y-87985431D01*
X163556117Y-88096919D01*
X163556461Y-88177062D01*
X163556461Y-88472065D01*
X163390385Y-88546515D01*
X163380615Y-88223402D01*
X163376579Y-88102729D01*
X163372344Y-88015141D01*
X163367097Y-87954650D01*
X163360025Y-87915268D01*
X163350311Y-87891007D01*
X163337144Y-87875880D01*
X163332919Y-87872606D01*
X163268909Y-87847034D01*
X163204208Y-87857153D01*
X163165692Y-87884000D01*
X163150025Y-87903024D01*
X163139180Y-87927988D01*
X163132288Y-87965834D01*
X163128479Y-88023502D01*
X163126883Y-88107935D01*
X163126615Y-88195928D01*
X163126563Y-88306323D01*
X163124672Y-88384463D01*
X163118345Y-88437165D01*
X163104983Y-88471242D01*
X163081985Y-88493511D01*
X163046754Y-88510787D01*
X162999697Y-88528738D01*
X162948303Y-88548278D01*
X162954421Y-88201485D01*
X162956884Y-88076468D01*
X162959767Y-87984082D01*
X162963898Y-87917881D01*
X162970107Y-87871420D01*
X162979226Y-87838256D01*
X162992083Y-87811944D01*
X163007584Y-87788729D01*
X163082371Y-87714569D01*
X163173628Y-87671684D01*
X163272883Y-87661412D01*
X163371664Y-87685089D01*
G36*
X163371664Y-87685089D02*
G01*
X163434367Y-87721358D01*
X163477961Y-87757358D01*
X163509845Y-87795075D01*
X163531810Y-87841199D01*
X163545649Y-87902421D01*
X163553153Y-87985431D01*
X163556117Y-88096919D01*
X163556461Y-88177062D01*
X163556461Y-88472065D01*
X163390385Y-88546515D01*
X163380615Y-88223402D01*
X163376579Y-88102729D01*
X163372344Y-88015141D01*
X163367097Y-87954650D01*
X163360025Y-87915268D01*
X163350311Y-87891007D01*
X163337144Y-87875880D01*
X163332919Y-87872606D01*
X163268909Y-87847034D01*
X163204208Y-87857153D01*
X163165692Y-87884000D01*
X163150025Y-87903024D01*
X163139180Y-87927988D01*
X163132288Y-87965834D01*
X163128479Y-88023502D01*
X163126883Y-88107935D01*
X163126615Y-88195928D01*
X163126563Y-88306323D01*
X163124672Y-88384463D01*
X163118345Y-88437165D01*
X163104983Y-88471242D01*
X163081985Y-88493511D01*
X163046754Y-88510787D01*
X162999697Y-88528738D01*
X162948303Y-88548278D01*
X162954421Y-88201485D01*
X162956884Y-88076468D01*
X162959767Y-87984082D01*
X162963898Y-87917881D01*
X162970107Y-87871420D01*
X162979226Y-87838256D01*
X162992083Y-87811944D01*
X163007584Y-87788729D01*
X163082371Y-87714569D01*
X163173628Y-87671684D01*
X163272883Y-87661412D01*
X163371664Y-87685089D01*
G37*
X165813362Y-87714670D02*
X165902117Y-87747421D01*
X165974022Y-87805350D01*
X166002144Y-87846128D01*
X166032802Y-87920954D01*
X166032165Y-87975058D01*
X165999987Y-88011446D01*
X165988081Y-88017633D01*
X165936675Y-88036925D01*
X165910422Y-88031982D01*
X165901530Y-87999587D01*
X165901077Y-87981692D01*
X165884797Y-87915859D01*
X165842365Y-87869807D01*
X165783388Y-87847564D01*
X165717475Y-87853161D01*
X165663895Y-87882229D01*
X165645798Y-87898810D01*
X165632971Y-87918925D01*
X165624306Y-87949332D01*
X165618696Y-87996788D01*
X165615035Y-88068050D01*
X165612215Y-88169875D01*
X165611484Y-88202115D01*
X165608820Y-88312410D01*
X165605792Y-88390036D01*
X165601250Y-88441396D01*
X165594046Y-88472890D01*
X165583033Y-88490920D01*
X165567060Y-88501888D01*
X165556834Y-88506733D01*
X165513406Y-88523301D01*
X165487842Y-88528769D01*
X165479395Y-88510507D01*
X165474239Y-88455296D01*
X165472346Y-88362499D01*
X165473689Y-88231478D01*
X165474107Y-88211269D01*
X165477058Y-88091733D01*
X165480548Y-88004449D01*
X165485514Y-87942591D01*
X165492893Y-87899336D01*
X165503624Y-87867860D01*
X165518645Y-87841339D01*
X165526502Y-87829975D01*
X165571553Y-87779692D01*
X165621940Y-87740581D01*
X165628108Y-87737167D01*
X165718458Y-87710212D01*
X165813362Y-87714670D01*
G36*
X165813362Y-87714670D02*
G01*
X165902117Y-87747421D01*
X165974022Y-87805350D01*
X166002144Y-87846128D01*
X166032802Y-87920954D01*
X166032165Y-87975058D01*
X165999987Y-88011446D01*
X165988081Y-88017633D01*
X165936675Y-88036925D01*
X165910422Y-88031982D01*
X165901530Y-87999587D01*
X165901077Y-87981692D01*
X165884797Y-87915859D01*
X165842365Y-87869807D01*
X165783388Y-87847564D01*
X165717475Y-87853161D01*
X165663895Y-87882229D01*
X165645798Y-87898810D01*
X165632971Y-87918925D01*
X165624306Y-87949332D01*
X165618696Y-87996788D01*
X165615035Y-88068050D01*
X165612215Y-88169875D01*
X165611484Y-88202115D01*
X165608820Y-88312410D01*
X165605792Y-88390036D01*
X165601250Y-88441396D01*
X165594046Y-88472890D01*
X165583033Y-88490920D01*
X165567060Y-88501888D01*
X165556834Y-88506733D01*
X165513406Y-88523301D01*
X165487842Y-88528769D01*
X165479395Y-88510507D01*
X165474239Y-88455296D01*
X165472346Y-88362499D01*
X165473689Y-88231478D01*
X165474107Y-88211269D01*
X165477058Y-88091733D01*
X165480548Y-88004449D01*
X165485514Y-87942591D01*
X165492893Y-87899336D01*
X165503624Y-87867860D01*
X165518645Y-87841339D01*
X165526502Y-87829975D01*
X165571553Y-87779692D01*
X165621940Y-87740581D01*
X165628108Y-87737167D01*
X165718458Y-87710212D01*
X165813362Y-87714670D01*
G37*
X164259846Y-87582120D02*
X164265572Y-87661980D01*
X164272149Y-87709039D01*
X164281262Y-87729566D01*
X164294598Y-87729829D01*
X164298923Y-87727378D01*
X164356444Y-87709636D01*
X164431268Y-87710672D01*
X164507339Y-87728910D01*
X164554918Y-87752505D01*
X164603702Y-87790198D01*
X164639364Y-87832855D01*
X164663845Y-87887057D01*
X164679087Y-87959384D01*
X164687030Y-88056419D01*
X164689616Y-88184742D01*
X164689662Y-88209358D01*
X164689692Y-88485870D01*
X164628161Y-88507320D01*
X164584459Y-88521912D01*
X164560482Y-88528706D01*
X164559777Y-88528769D01*
X164557415Y-88510345D01*
X164555406Y-88459526D01*
X164553901Y-88382993D01*
X164553053Y-88287430D01*
X164552923Y-88229329D01*
X164552651Y-88114771D01*
X164551252Y-88032667D01*
X164547849Y-87976393D01*
X164541567Y-87939326D01*
X164531529Y-87914844D01*
X164516861Y-87896325D01*
X164507702Y-87887406D01*
X164444789Y-87851466D01*
X164376136Y-87848775D01*
X164313848Y-87879170D01*
X164302329Y-87890144D01*
X164285433Y-87910779D01*
X164273714Y-87935256D01*
X164266233Y-87970647D01*
X164262054Y-88024026D01*
X164260237Y-88102466D01*
X164259846Y-88210617D01*
X164259846Y-88485870D01*
X164198315Y-88507320D01*
X164154613Y-88521912D01*
X164130636Y-88528706D01*
X164129930Y-88528769D01*
X164128126Y-88510069D01*
X164126500Y-88457322D01*
X164125117Y-88375557D01*
X164124042Y-88269805D01*
X164123340Y-88145094D01*
X164123077Y-88006455D01*
X164123077Y-87471806D01*
X164250077Y-87418236D01*
X164259846Y-87582120D01*
G36*
X164259846Y-87582120D02*
G01*
X164265572Y-87661980D01*
X164272149Y-87709039D01*
X164281262Y-87729566D01*
X164294598Y-87729829D01*
X164298923Y-87727378D01*
X164356444Y-87709636D01*
X164431268Y-87710672D01*
X164507339Y-87728910D01*
X164554918Y-87752505D01*
X164603702Y-87790198D01*
X164639364Y-87832855D01*
X164663845Y-87887057D01*
X164679087Y-87959384D01*
X164687030Y-88056419D01*
X164689616Y-88184742D01*
X164689662Y-88209358D01*
X164689692Y-88485870D01*
X164628161Y-88507320D01*
X164584459Y-88521912D01*
X164560482Y-88528706D01*
X164559777Y-88528769D01*
X164557415Y-88510345D01*
X164555406Y-88459526D01*
X164553901Y-88382993D01*
X164553053Y-88287430D01*
X164552923Y-88229329D01*
X164552651Y-88114771D01*
X164551252Y-88032667D01*
X164547849Y-87976393D01*
X164541567Y-87939326D01*
X164531529Y-87914844D01*
X164516861Y-87896325D01*
X164507702Y-87887406D01*
X164444789Y-87851466D01*
X164376136Y-87848775D01*
X164313848Y-87879170D01*
X164302329Y-87890144D01*
X164285433Y-87910779D01*
X164273714Y-87935256D01*
X164266233Y-87970647D01*
X164262054Y-88024026D01*
X164260237Y-88102466D01*
X164259846Y-88210617D01*
X164259846Y-88485870D01*
X164198315Y-88507320D01*
X164154613Y-88521912D01*
X164130636Y-88528706D01*
X164129930Y-88528769D01*
X164128126Y-88510069D01*
X164126500Y-88457322D01*
X164125117Y-88375557D01*
X164124042Y-88269805D01*
X164123340Y-88145094D01*
X164123077Y-88006455D01*
X164123077Y-87471806D01*
X164250077Y-87418236D01*
X164259846Y-87582120D01*
G37*
X167495929Y-87726662D02*
X167498911Y-87778068D01*
X167501247Y-87856192D01*
X167502749Y-87954857D01*
X167503231Y-88058343D01*
X167503231Y-88408533D01*
X167441401Y-88470363D01*
X167398793Y-88508462D01*
X167361390Y-88523895D01*
X167310270Y-88522918D01*
X167289978Y-88520433D01*
X167226554Y-88513200D01*
X167174095Y-88509055D01*
X167161308Y-88508672D01*
X167118199Y-88511176D01*
X167056544Y-88517462D01*
X167032638Y-88520433D01*
X166973922Y-88525028D01*
X166934464Y-88515046D01*
X166895338Y-88484228D01*
X166881215Y-88470363D01*
X166819385Y-88408533D01*
X166819385Y-87753503D01*
X166869150Y-87730829D01*
X166912002Y-87714034D01*
X166937073Y-87708154D01*
X166943501Y-87726736D01*
X166949509Y-87778655D01*
X166954697Y-87858172D01*
X166958664Y-87959546D01*
X166960577Y-88045192D01*
X166965923Y-88382231D01*
X167012560Y-88388825D01*
X167054976Y-88384214D01*
X167075760Y-88369287D01*
X167081570Y-88341377D01*
X167086530Y-88281925D01*
X167090246Y-88198466D01*
X167092324Y-88098532D01*
X167092624Y-88047104D01*
X167092923Y-87751054D01*
X167154454Y-87729604D01*
X167198004Y-87715020D01*
X167221694Y-87708219D01*
X167222377Y-87708154D01*
X167224754Y-87726642D01*
X167227366Y-87777906D01*
X167229995Y-87855649D01*
X167232421Y-87953574D01*
X167234115Y-88045192D01*
X167239461Y-88382231D01*
X167356692Y-88382231D01*
X167362072Y-88074746D01*
X167367451Y-87767261D01*
X167424601Y-87737707D01*
X167466797Y-87717413D01*
X167491770Y-87708204D01*
X167492491Y-87708154D01*
X167495929Y-87726662D01*
G36*
X167495929Y-87726662D02*
G01*
X167498911Y-87778068D01*
X167501247Y-87856192D01*
X167502749Y-87954857D01*
X167503231Y-88058343D01*
X167503231Y-88408533D01*
X167441401Y-88470363D01*
X167398793Y-88508462D01*
X167361390Y-88523895D01*
X167310270Y-88522918D01*
X167289978Y-88520433D01*
X167226554Y-88513200D01*
X167174095Y-88509055D01*
X167161308Y-88508672D01*
X167118199Y-88511176D01*
X167056544Y-88517462D01*
X167032638Y-88520433D01*
X166973922Y-88525028D01*
X166934464Y-88515046D01*
X166895338Y-88484228D01*
X166881215Y-88470363D01*
X166819385Y-88408533D01*
X166819385Y-87753503D01*
X166869150Y-87730829D01*
X166912002Y-87714034D01*
X166937073Y-87708154D01*
X166943501Y-87726736D01*
X166949509Y-87778655D01*
X166954697Y-87858172D01*
X166958664Y-87959546D01*
X166960577Y-88045192D01*
X166965923Y-88382231D01*
X167012560Y-88388825D01*
X167054976Y-88384214D01*
X167075760Y-88369287D01*
X167081570Y-88341377D01*
X167086530Y-88281925D01*
X167090246Y-88198466D01*
X167092324Y-88098532D01*
X167092624Y-88047104D01*
X167092923Y-87751054D01*
X167154454Y-87729604D01*
X167198004Y-87715020D01*
X167221694Y-87708219D01*
X167222377Y-87708154D01*
X167224754Y-87726642D01*
X167227366Y-87777906D01*
X167229995Y-87855649D01*
X167232421Y-87953574D01*
X167234115Y-88045192D01*
X167239461Y-88382231D01*
X167356692Y-88382231D01*
X167362072Y-88074746D01*
X167367451Y-87767261D01*
X167424601Y-87737707D01*
X167466797Y-87717413D01*
X167491770Y-87708204D01*
X167492491Y-87708154D01*
X167495929Y-87726662D01*
G37*
X161116886Y-87677256D02*
X161208464Y-87725409D01*
X161276049Y-87802905D01*
X161300057Y-87852727D01*
X161318738Y-87927533D01*
X161328301Y-88022052D01*
X161329208Y-88125210D01*
X161321921Y-88225935D01*
X161306903Y-88313153D01*
X161284615Y-88375791D01*
X161277765Y-88386579D01*
X161196632Y-88467105D01*
X161100266Y-88515336D01*
X160995701Y-88529450D01*
X160889968Y-88507629D01*
X160860543Y-88494547D01*
X160803241Y-88454231D01*
X160752950Y-88400775D01*
X160748197Y-88393995D01*
X160728878Y-88361321D01*
X160716108Y-88326394D01*
X160708564Y-88280414D01*
X160704924Y-88214584D01*
X160703865Y-88120105D01*
X160703846Y-88098923D01*
X160703894Y-88092182D01*
X160899231Y-88092182D01*
X160900368Y-88181349D01*
X160904841Y-88240520D01*
X160914246Y-88278741D01*
X160930176Y-88305053D01*
X160938308Y-88313846D01*
X160985058Y-88347261D01*
X161030447Y-88345737D01*
X161076340Y-88316752D01*
X161103712Y-88285809D01*
X161119923Y-88240643D01*
X161129026Y-88169420D01*
X161129651Y-88161114D01*
X161131204Y-88032037D01*
X161114965Y-87936172D01*
X161081152Y-87874107D01*
X161029984Y-87846432D01*
X161011720Y-87844923D01*
X160963760Y-87852513D01*
X160930953Y-87878808D01*
X160910895Y-87929095D01*
X160901178Y-88008664D01*
X160899231Y-88092182D01*
X160703894Y-88092182D01*
X160704574Y-87998249D01*
X160707629Y-87927906D01*
X160714322Y-87879163D01*
X160725960Y-87843288D01*
X160743853Y-87811548D01*
X160747808Y-87805648D01*
X160814267Y-87726104D01*
X160886685Y-87679929D01*
X160974849Y-87661599D01*
X161004787Y-87660703D01*
X161116886Y-87677256D01*
G36*
X161116886Y-87677256D02*
G01*
X161208464Y-87725409D01*
X161276049Y-87802905D01*
X161300057Y-87852727D01*
X161318738Y-87927533D01*
X161328301Y-88022052D01*
X161329208Y-88125210D01*
X161321921Y-88225935D01*
X161306903Y-88313153D01*
X161284615Y-88375791D01*
X161277765Y-88386579D01*
X161196632Y-88467105D01*
X161100266Y-88515336D01*
X160995701Y-88529450D01*
X160889968Y-88507629D01*
X160860543Y-88494547D01*
X160803241Y-88454231D01*
X160752950Y-88400775D01*
X160748197Y-88393995D01*
X160728878Y-88361321D01*
X160716108Y-88326394D01*
X160708564Y-88280414D01*
X160704924Y-88214584D01*
X160703865Y-88120105D01*
X160703846Y-88098923D01*
X160703894Y-88092182D01*
X160899231Y-88092182D01*
X160900368Y-88181349D01*
X160904841Y-88240520D01*
X160914246Y-88278741D01*
X160930176Y-88305053D01*
X160938308Y-88313846D01*
X160985058Y-88347261D01*
X161030447Y-88345737D01*
X161076340Y-88316752D01*
X161103712Y-88285809D01*
X161119923Y-88240643D01*
X161129026Y-88169420D01*
X161129651Y-88161114D01*
X161131204Y-88032037D01*
X161114965Y-87936172D01*
X161081152Y-87874107D01*
X161029984Y-87846432D01*
X161011720Y-87844923D01*
X160963760Y-87852513D01*
X160930953Y-87878808D01*
X160910895Y-87929095D01*
X160901178Y-88008664D01*
X160899231Y-88092182D01*
X160703894Y-88092182D01*
X160704574Y-87998249D01*
X160707629Y-87927906D01*
X160714322Y-87879163D01*
X160725960Y-87843288D01*
X160743853Y-87811548D01*
X160747808Y-87805648D01*
X160814267Y-87726104D01*
X160886685Y-87679929D01*
X160974849Y-87661599D01*
X161004787Y-87660703D01*
X161116886Y-87677256D01*
G37*
X169345224Y-87737838D02*
X169422528Y-87788361D01*
X169459814Y-87833590D01*
X169489353Y-87915663D01*
X169491699Y-87980607D01*
X169486385Y-88067445D01*
X169286115Y-88155103D01*
X169188739Y-88199887D01*
X169125113Y-88235913D01*
X169092029Y-88267117D01*
X169086280Y-88297436D01*
X169104658Y-88330805D01*
X169124923Y-88352923D01*
X169183889Y-88388393D01*
X169248024Y-88390879D01*
X169306926Y-88363235D01*
X169350197Y-88308320D01*
X169357936Y-88288928D01*
X169395006Y-88228364D01*
X169437654Y-88202552D01*
X169496154Y-88180471D01*
X169496154Y-88264184D01*
X169490982Y-88321150D01*
X169470723Y-88369189D01*
X169428262Y-88424346D01*
X169421951Y-88431514D01*
X169374720Y-88480585D01*
X169334121Y-88506920D01*
X169283328Y-88519035D01*
X169241220Y-88523003D01*
X169165902Y-88523991D01*
X169112286Y-88511466D01*
X169078838Y-88492869D01*
X169026268Y-88451975D01*
X168989879Y-88407748D01*
X168966850Y-88352126D01*
X168954359Y-88277047D01*
X168949587Y-88174449D01*
X168949206Y-88122376D01*
X168950501Y-88059948D01*
X169068471Y-88059948D01*
X169069839Y-88093438D01*
X169073249Y-88098923D01*
X169095753Y-88091472D01*
X169144182Y-88071753D01*
X169208908Y-88043718D01*
X169222443Y-88037692D01*
X169304244Y-87996096D01*
X169349312Y-87959538D01*
X169359217Y-87925296D01*
X169335526Y-87890648D01*
X169315960Y-87875339D01*
X169245360Y-87844721D01*
X169179280Y-87849780D01*
X169123959Y-87887151D01*
X169085636Y-87953473D01*
X169073349Y-88006116D01*
X169068471Y-88059948D01*
X168950501Y-88059948D01*
X168951730Y-88000720D01*
X168961032Y-87910710D01*
X168979460Y-87845167D01*
X169009360Y-87796912D01*
X169053080Y-87758767D01*
X169072141Y-87746440D01*
X169158726Y-87714336D01*
X169253522Y-87712316D01*
X169345224Y-87737838D01*
G36*
X169345224Y-87737838D02*
G01*
X169422528Y-87788361D01*
X169459814Y-87833590D01*
X169489353Y-87915663D01*
X169491699Y-87980607D01*
X169486385Y-88067445D01*
X169286115Y-88155103D01*
X169188739Y-88199887D01*
X169125113Y-88235913D01*
X169092029Y-88267117D01*
X169086280Y-88297436D01*
X169104658Y-88330805D01*
X169124923Y-88352923D01*
X169183889Y-88388393D01*
X169248024Y-88390879D01*
X169306926Y-88363235D01*
X169350197Y-88308320D01*
X169357936Y-88288928D01*
X169395006Y-88228364D01*
X169437654Y-88202552D01*
X169496154Y-88180471D01*
X169496154Y-88264184D01*
X169490982Y-88321150D01*
X169470723Y-88369189D01*
X169428262Y-88424346D01*
X169421951Y-88431514D01*
X169374720Y-88480585D01*
X169334121Y-88506920D01*
X169283328Y-88519035D01*
X169241220Y-88523003D01*
X169165902Y-88523991D01*
X169112286Y-88511466D01*
X169078838Y-88492869D01*
X169026268Y-88451975D01*
X168989879Y-88407748D01*
X168966850Y-88352126D01*
X168954359Y-88277047D01*
X168949587Y-88174449D01*
X168949206Y-88122376D01*
X168950501Y-88059948D01*
X169068471Y-88059948D01*
X169069839Y-88093438D01*
X169073249Y-88098923D01*
X169095753Y-88091472D01*
X169144182Y-88071753D01*
X169208908Y-88043718D01*
X169222443Y-88037692D01*
X169304244Y-87996096D01*
X169349312Y-87959538D01*
X169359217Y-87925296D01*
X169335526Y-87890648D01*
X169315960Y-87875339D01*
X169245360Y-87844721D01*
X169179280Y-87849780D01*
X169123959Y-87887151D01*
X169085636Y-87953473D01*
X169073349Y-88006116D01*
X169068471Y-88059948D01*
X168950501Y-88059948D01*
X168951730Y-88000720D01*
X168961032Y-87910710D01*
X168979460Y-87845167D01*
X169009360Y-87796912D01*
X169053080Y-87758767D01*
X169072141Y-87746440D01*
X169158726Y-87714336D01*
X169253522Y-87712316D01*
X169345224Y-87737838D01*
G37*
X166702081Y-87870289D02*
X166701833Y-88016320D01*
X166700872Y-88128655D01*
X166698794Y-88212678D01*
X166695193Y-88273769D01*
X166689665Y-88317309D01*
X166681804Y-88348679D01*
X166671207Y-88373262D01*
X166663182Y-88387294D01*
X166596728Y-88463388D01*
X166512470Y-88511084D01*
X166419249Y-88528199D01*
X166325900Y-88512546D01*
X166270312Y-88484418D01*
X166211957Y-88435760D01*
X166172186Y-88376333D01*
X166148190Y-88298507D01*
X166137161Y-88194652D01*
X166135599Y-88118462D01*
X166135809Y-88112986D01*
X166272308Y-88112986D01*
X166273141Y-88200355D01*
X166276961Y-88258192D01*
X166285746Y-88296029D01*
X166301474Y-88323398D01*
X166320266Y-88344042D01*
X166383375Y-88383890D01*
X166451137Y-88387295D01*
X166515179Y-88354025D01*
X166520164Y-88349517D01*
X166541439Y-88326067D01*
X166554779Y-88298166D01*
X166562001Y-88256641D01*
X166564923Y-88192316D01*
X166565385Y-88121200D01*
X166564383Y-88031858D01*
X166560238Y-87972258D01*
X166551236Y-87933089D01*
X166535667Y-87905040D01*
X166522902Y-87890144D01*
X166463600Y-87852575D01*
X166395301Y-87848057D01*
X166330110Y-87876753D01*
X166317528Y-87887406D01*
X166296111Y-87911063D01*
X166282744Y-87939251D01*
X166275566Y-87981245D01*
X166272719Y-88046319D01*
X166272308Y-88112986D01*
X166135809Y-88112986D01*
X166140322Y-87995765D01*
X166156362Y-87903577D01*
X166186528Y-87834269D01*
X166233629Y-87780211D01*
X166270312Y-87752505D01*
X166336990Y-87722572D01*
X166414272Y-87708678D01*
X166486110Y-87712397D01*
X166526308Y-87727400D01*
X166542082Y-87731670D01*
X166552550Y-87715750D01*
X166559856Y-87673089D01*
X166565385Y-87608106D01*
X166571437Y-87535732D01*
X166579844Y-87492187D01*
X166595141Y-87467287D01*
X166621864Y-87450845D01*
X166638654Y-87443564D01*
X166702154Y-87416963D01*
X166702081Y-87870289D01*
G36*
X166702081Y-87870289D02*
G01*
X166701833Y-88016320D01*
X166700872Y-88128655D01*
X166698794Y-88212678D01*
X166695193Y-88273769D01*
X166689665Y-88317309D01*
X166681804Y-88348679D01*
X166671207Y-88373262D01*
X166663182Y-88387294D01*
X166596728Y-88463388D01*
X166512470Y-88511084D01*
X166419249Y-88528199D01*
X166325900Y-88512546D01*
X166270312Y-88484418D01*
X166211957Y-88435760D01*
X166172186Y-88376333D01*
X166148190Y-88298507D01*
X166137161Y-88194652D01*
X166135599Y-88118462D01*
X166135809Y-88112986D01*
X166272308Y-88112986D01*
X166273141Y-88200355D01*
X166276961Y-88258192D01*
X166285746Y-88296029D01*
X166301474Y-88323398D01*
X166320266Y-88344042D01*
X166383375Y-88383890D01*
X166451137Y-88387295D01*
X166515179Y-88354025D01*
X166520164Y-88349517D01*
X166541439Y-88326067D01*
X166554779Y-88298166D01*
X166562001Y-88256641D01*
X166564923Y-88192316D01*
X166565385Y-88121200D01*
X166564383Y-88031858D01*
X166560238Y-87972258D01*
X166551236Y-87933089D01*
X166535667Y-87905040D01*
X166522902Y-87890144D01*
X166463600Y-87852575D01*
X166395301Y-87848057D01*
X166330110Y-87876753D01*
X166317528Y-87887406D01*
X166296111Y-87911063D01*
X166282744Y-87939251D01*
X166275566Y-87981245D01*
X166272719Y-88046319D01*
X166272308Y-88112986D01*
X166135809Y-88112986D01*
X166140322Y-87995765D01*
X166156362Y-87903577D01*
X166186528Y-87834269D01*
X166233629Y-87780211D01*
X166270312Y-87752505D01*
X166336990Y-87722572D01*
X166414272Y-87708678D01*
X166486110Y-87712397D01*
X166526308Y-87727400D01*
X166542082Y-87731670D01*
X166552550Y-87715750D01*
X166559856Y-87673089D01*
X166565385Y-87608106D01*
X166571437Y-87535732D01*
X166579844Y-87492187D01*
X166595141Y-87467287D01*
X166621864Y-87450845D01*
X166638654Y-87443564D01*
X166702154Y-87416963D01*
X166702081Y-87870289D01*
G37*
X162634254Y-87689745D02*
X162711286Y-87741567D01*
X162770816Y-87816412D01*
X162806378Y-87911654D01*
X162813571Y-87981756D01*
X162812754Y-88011009D01*
X162805914Y-88033407D01*
X162787112Y-88053474D01*
X162750408Y-88075733D01*
X162689862Y-88104709D01*
X162599534Y-88144927D01*
X162599077Y-88145129D01*
X162515933Y-88183210D01*
X162447753Y-88217025D01*
X162401505Y-88242933D01*
X162384158Y-88257295D01*
X162384154Y-88257411D01*
X162399443Y-88288685D01*
X162435196Y-88323157D01*
X162476242Y-88347990D01*
X162497037Y-88352923D01*
X162553770Y-88335862D01*
X162602627Y-88293133D01*
X162626465Y-88246155D01*
X162649397Y-88211522D01*
X162694318Y-88172081D01*
X162747123Y-88138009D01*
X162793710Y-88119480D01*
X162803452Y-88118462D01*
X162814418Y-88135215D01*
X162815079Y-88178039D01*
X162807020Y-88235781D01*
X162791827Y-88297289D01*
X162771086Y-88351409D01*
X162770038Y-88353510D01*
X162707621Y-88440660D01*
X162626726Y-88499939D01*
X162534856Y-88529034D01*
X162439513Y-88525634D01*
X162348198Y-88487428D01*
X162344138Y-88484741D01*
X162272306Y-88419642D01*
X162225073Y-88334705D01*
X162198934Y-88223021D01*
X162195426Y-88191643D01*
X162189213Y-88043536D01*
X162196661Y-87974468D01*
X162384154Y-87974468D01*
X162386590Y-88017552D01*
X162399914Y-88030126D01*
X162433132Y-88020719D01*
X162485494Y-87998483D01*
X162544024Y-87970610D01*
X162545479Y-87969872D01*
X162595089Y-87943777D01*
X162615000Y-87926363D01*
X162610090Y-87908107D01*
X162589416Y-87884120D01*
X162536819Y-87849406D01*
X162480177Y-87846856D01*
X162429369Y-87872119D01*
X162394276Y-87920847D01*
X162384154Y-87974468D01*
X162196661Y-87974468D01*
X162201992Y-87925036D01*
X162234778Y-87831055D01*
X162280421Y-87765215D01*
X162362802Y-87698681D01*
X162453546Y-87665676D01*
X162546185Y-87663573D01*
X162634254Y-87689745D01*
G36*
X162634254Y-87689745D02*
G01*
X162711286Y-87741567D01*
X162770816Y-87816412D01*
X162806378Y-87911654D01*
X162813571Y-87981756D01*
X162812754Y-88011009D01*
X162805914Y-88033407D01*
X162787112Y-88053474D01*
X162750408Y-88075733D01*
X162689862Y-88104709D01*
X162599534Y-88144927D01*
X162599077Y-88145129D01*
X162515933Y-88183210D01*
X162447753Y-88217025D01*
X162401505Y-88242933D01*
X162384158Y-88257295D01*
X162384154Y-88257411D01*
X162399443Y-88288685D01*
X162435196Y-88323157D01*
X162476242Y-88347990D01*
X162497037Y-88352923D01*
X162553770Y-88335862D01*
X162602627Y-88293133D01*
X162626465Y-88246155D01*
X162649397Y-88211522D01*
X162694318Y-88172081D01*
X162747123Y-88138009D01*
X162793710Y-88119480D01*
X162803452Y-88118462D01*
X162814418Y-88135215D01*
X162815079Y-88178039D01*
X162807020Y-88235781D01*
X162791827Y-88297289D01*
X162771086Y-88351409D01*
X162770038Y-88353510D01*
X162707621Y-88440660D01*
X162626726Y-88499939D01*
X162534856Y-88529034D01*
X162439513Y-88525634D01*
X162348198Y-88487428D01*
X162344138Y-88484741D01*
X162272306Y-88419642D01*
X162225073Y-88334705D01*
X162198934Y-88223021D01*
X162195426Y-88191643D01*
X162189213Y-88043536D01*
X162196661Y-87974468D01*
X162384154Y-87974468D01*
X162386590Y-88017552D01*
X162399914Y-88030126D01*
X162433132Y-88020719D01*
X162485494Y-87998483D01*
X162544024Y-87970610D01*
X162545479Y-87969872D01*
X162595089Y-87943777D01*
X162615000Y-87926363D01*
X162610090Y-87908107D01*
X162589416Y-87884120D01*
X162536819Y-87849406D01*
X162480177Y-87846856D01*
X162429369Y-87872119D01*
X162394276Y-87920847D01*
X162384154Y-87974468D01*
X162196661Y-87974468D01*
X162201992Y-87925036D01*
X162234778Y-87831055D01*
X162280421Y-87765215D01*
X162362802Y-87698681D01*
X162453546Y-87665676D01*
X162546185Y-87663573D01*
X162634254Y-87689745D01*
G37*
X165153501Y-87716303D02*
X165230060Y-87744733D01*
X165230936Y-87745279D01*
X165278285Y-87780127D01*
X165313241Y-87820852D01*
X165337825Y-87873925D01*
X165354062Y-87945814D01*
X165363975Y-88042992D01*
X165369586Y-88171928D01*
X165370077Y-88190298D01*
X165377141Y-88467287D01*
X165317695Y-88498028D01*
X165274681Y-88518802D01*
X165248710Y-88528646D01*
X165247509Y-88528769D01*
X165243014Y-88510606D01*
X165239444Y-88461612D01*
X165237248Y-88390031D01*
X165236769Y-88332068D01*
X165236758Y-88238170D01*
X165232466Y-88179203D01*
X165217503Y-88151079D01*
X165185482Y-88149706D01*
X165130014Y-88170998D01*
X165046269Y-88210136D01*
X164984689Y-88242643D01*
X164953017Y-88270845D01*
X164943706Y-88301582D01*
X164943692Y-88303104D01*
X164959057Y-88356054D01*
X165004547Y-88384660D01*
X165074166Y-88388803D01*
X165124313Y-88388084D01*
X165150754Y-88402527D01*
X165167243Y-88437218D01*
X165176733Y-88481416D01*
X165163057Y-88506493D01*
X165157907Y-88510082D01*
X165109425Y-88524496D01*
X165041531Y-88526537D01*
X164971612Y-88516983D01*
X164922068Y-88499522D01*
X164853570Y-88441364D01*
X164814634Y-88360408D01*
X164806923Y-88297160D01*
X164812807Y-88240111D01*
X164834101Y-88193542D01*
X164876265Y-88152181D01*
X164944759Y-88110755D01*
X165045044Y-88063993D01*
X165051154Y-88061350D01*
X165141490Y-88019617D01*
X165197235Y-87985391D01*
X165221129Y-87954635D01*
X165215913Y-87923311D01*
X165184328Y-87887383D01*
X165174883Y-87879116D01*
X165111617Y-87847058D01*
X165046064Y-87848407D01*
X164988972Y-87879838D01*
X164951093Y-87938024D01*
X164947574Y-87949446D01*
X164913300Y-88004837D01*
X164869809Y-88031518D01*
X164806923Y-88057960D01*
X164806923Y-87989548D01*
X164826052Y-87890110D01*
X164882831Y-87798902D01*
X164912378Y-87768389D01*
X164979542Y-87729228D01*
X165064956Y-87711500D01*
X165153501Y-87716303D01*
G36*
X165153501Y-87716303D02*
G01*
X165230060Y-87744733D01*
X165230936Y-87745279D01*
X165278285Y-87780127D01*
X165313241Y-87820852D01*
X165337825Y-87873925D01*
X165354062Y-87945814D01*
X165363975Y-88042992D01*
X165369586Y-88171928D01*
X165370077Y-88190298D01*
X165377141Y-88467287D01*
X165317695Y-88498028D01*
X165274681Y-88518802D01*
X165248710Y-88528646D01*
X165247509Y-88528769D01*
X165243014Y-88510606D01*
X165239444Y-88461612D01*
X165237248Y-88390031D01*
X165236769Y-88332068D01*
X165236758Y-88238170D01*
X165232466Y-88179203D01*
X165217503Y-88151079D01*
X165185482Y-88149706D01*
X165130014Y-88170998D01*
X165046269Y-88210136D01*
X164984689Y-88242643D01*
X164953017Y-88270845D01*
X164943706Y-88301582D01*
X164943692Y-88303104D01*
X164959057Y-88356054D01*
X165004547Y-88384660D01*
X165074166Y-88388803D01*
X165124313Y-88388084D01*
X165150754Y-88402527D01*
X165167243Y-88437218D01*
X165176733Y-88481416D01*
X165163057Y-88506493D01*
X165157907Y-88510082D01*
X165109425Y-88524496D01*
X165041531Y-88526537D01*
X164971612Y-88516983D01*
X164922068Y-88499522D01*
X164853570Y-88441364D01*
X164814634Y-88360408D01*
X164806923Y-88297160D01*
X164812807Y-88240111D01*
X164834101Y-88193542D01*
X164876265Y-88152181D01*
X164944759Y-88110755D01*
X165045044Y-88063993D01*
X165051154Y-88061350D01*
X165141490Y-88019617D01*
X165197235Y-87985391D01*
X165221129Y-87954635D01*
X165215913Y-87923311D01*
X165184328Y-87887383D01*
X165174883Y-87879116D01*
X165111617Y-87847058D01*
X165046064Y-87848407D01*
X164988972Y-87879838D01*
X164951093Y-87938024D01*
X164947574Y-87949446D01*
X164913300Y-88004837D01*
X164869809Y-88031518D01*
X164806923Y-88057960D01*
X164806923Y-87989548D01*
X164826052Y-87890110D01*
X164882831Y-87798902D01*
X164912378Y-87768389D01*
X164979542Y-87729228D01*
X165064956Y-87711500D01*
X165153501Y-87716303D01*
G37*
X161868886Y-87674505D02*
X161943539Y-87711727D01*
X162009431Y-87780261D01*
X162027577Y-87805648D01*
X162047345Y-87838866D01*
X162060172Y-87874945D01*
X162067510Y-87923098D01*
X162070813Y-87992536D01*
X162071538Y-88084206D01*
X162068263Y-88209830D01*
X162056877Y-88304154D01*
X162035041Y-88374523D01*
X162000419Y-88428286D01*
X161950670Y-88472788D01*
X161947014Y-88475423D01*
X161897985Y-88502377D01*
X161838945Y-88515712D01*
X161763859Y-88519000D01*
X161641795Y-88519000D01*
X161641744Y-88637497D01*
X161640608Y-88703492D01*
X161633686Y-88742202D01*
X161615598Y-88765419D01*
X161580962Y-88784933D01*
X161572645Y-88788920D01*
X161533720Y-88807603D01*
X161503583Y-88819403D01*
X161481174Y-88820422D01*
X161465433Y-88806761D01*
X161455302Y-88774522D01*
X161449723Y-88719804D01*
X161447635Y-88638711D01*
X161447981Y-88527344D01*
X161449700Y-88381802D01*
X161450237Y-88338269D01*
X161452172Y-88188205D01*
X161453904Y-88090042D01*
X161641692Y-88090042D01*
X161642748Y-88173364D01*
X161647438Y-88227880D01*
X161658051Y-88263837D01*
X161676872Y-88291482D01*
X161689650Y-88304965D01*
X161741890Y-88344417D01*
X161788142Y-88347628D01*
X161835867Y-88315049D01*
X161837077Y-88313846D01*
X161856494Y-88288668D01*
X161868307Y-88254447D01*
X161874265Y-88201748D01*
X161876120Y-88121131D01*
X161876154Y-88103271D01*
X161871670Y-87992175D01*
X161857074Y-87915161D01*
X161830650Y-87868147D01*
X161790683Y-87847050D01*
X161767584Y-87844923D01*
X161712762Y-87854900D01*
X161675158Y-87887752D01*
X161652523Y-87947857D01*
X161642606Y-88039598D01*
X161641692Y-88090042D01*
X161453904Y-88090042D01*
X161454222Y-88072060D01*
X161456873Y-87984679D01*
X161460606Y-87920905D01*
X161465907Y-87875582D01*
X161473258Y-87843555D01*
X161483143Y-87819668D01*
X161496046Y-87798764D01*
X161501579Y-87790898D01*
X161574969Y-87716595D01*
X161667760Y-87674467D01*
X161775096Y-87662722D01*
X161868886Y-87674505D01*
G36*
X161868886Y-87674505D02*
G01*
X161943539Y-87711727D01*
X162009431Y-87780261D01*
X162027577Y-87805648D01*
X162047345Y-87838866D01*
X162060172Y-87874945D01*
X162067510Y-87923098D01*
X162070813Y-87992536D01*
X162071538Y-88084206D01*
X162068263Y-88209830D01*
X162056877Y-88304154D01*
X162035041Y-88374523D01*
X162000419Y-88428286D01*
X161950670Y-88472788D01*
X161947014Y-88475423D01*
X161897985Y-88502377D01*
X161838945Y-88515712D01*
X161763859Y-88519000D01*
X161641795Y-88519000D01*
X161641744Y-88637497D01*
X161640608Y-88703492D01*
X161633686Y-88742202D01*
X161615598Y-88765419D01*
X161580962Y-88784933D01*
X161572645Y-88788920D01*
X161533720Y-88807603D01*
X161503583Y-88819403D01*
X161481174Y-88820422D01*
X161465433Y-88806761D01*
X161455302Y-88774522D01*
X161449723Y-88719804D01*
X161447635Y-88638711D01*
X161447981Y-88527344D01*
X161449700Y-88381802D01*
X161450237Y-88338269D01*
X161452172Y-88188205D01*
X161453904Y-88090042D01*
X161641692Y-88090042D01*
X161642748Y-88173364D01*
X161647438Y-88227880D01*
X161658051Y-88263837D01*
X161676872Y-88291482D01*
X161689650Y-88304965D01*
X161741890Y-88344417D01*
X161788142Y-88347628D01*
X161835867Y-88315049D01*
X161837077Y-88313846D01*
X161856494Y-88288668D01*
X161868307Y-88254447D01*
X161874265Y-88201748D01*
X161876120Y-88121131D01*
X161876154Y-88103271D01*
X161871670Y-87992175D01*
X161857074Y-87915161D01*
X161830650Y-87868147D01*
X161790683Y-87847050D01*
X161767584Y-87844923D01*
X161712762Y-87854900D01*
X161675158Y-87887752D01*
X161652523Y-87947857D01*
X161642606Y-88039598D01*
X161641692Y-88090042D01*
X161453904Y-88090042D01*
X161454222Y-88072060D01*
X161456873Y-87984679D01*
X161460606Y-87920905D01*
X161465907Y-87875582D01*
X161473258Y-87843555D01*
X161483143Y-87819668D01*
X161496046Y-87798764D01*
X161501579Y-87790898D01*
X161574969Y-87716595D01*
X161667760Y-87674467D01*
X161775096Y-87662722D01*
X161868886Y-87674505D01*
G37*
X167987333Y-87723528D02*
X168043590Y-87749117D01*
X168087747Y-87780124D01*
X168120101Y-87814795D01*
X168142438Y-87859520D01*
X168156546Y-87920692D01*
X168164211Y-88004701D01*
X168167220Y-88117940D01*
X168167538Y-88192509D01*
X168167538Y-88483420D01*
X168117773Y-88506095D01*
X168078576Y-88522667D01*
X168059157Y-88528769D01*
X168055442Y-88510610D01*
X168052495Y-88461648D01*
X168050691Y-88390153D01*
X168050308Y-88333385D01*
X168048661Y-88251371D01*
X168044222Y-88186309D01*
X168037740Y-88146467D01*
X168032590Y-88138000D01*
X167997977Y-88146646D01*
X167943640Y-88168823D01*
X167880722Y-88198886D01*
X167820368Y-88231192D01*
X167773721Y-88260098D01*
X167751926Y-88279961D01*
X167751839Y-88280175D01*
X167753714Y-88316935D01*
X167770525Y-88352026D01*
X167800039Y-88380528D01*
X167843116Y-88390061D01*
X167879932Y-88388950D01*
X167932074Y-88388133D01*
X167959444Y-88400349D01*
X167975882Y-88432624D01*
X167977955Y-88438710D01*
X167985081Y-88484739D01*
X167966024Y-88512687D01*
X167916353Y-88526007D01*
X167862697Y-88528470D01*
X167766142Y-88510210D01*
X167716159Y-88484131D01*
X167654429Y-88422868D01*
X167621690Y-88347670D01*
X167618753Y-88268211D01*
X167646424Y-88194167D01*
X167688047Y-88147769D01*
X167729604Y-88121793D01*
X167794922Y-88088907D01*
X167871038Y-88055557D01*
X167883726Y-88050461D01*
X167967333Y-88013565D01*
X168015530Y-87981046D01*
X168031030Y-87948718D01*
X168016550Y-87912394D01*
X167991692Y-87884000D01*
X167932939Y-87849039D01*
X167868293Y-87846417D01*
X167809008Y-87873358D01*
X167766339Y-87927088D01*
X167760739Y-87940950D01*
X167728133Y-87991936D01*
X167680530Y-88029787D01*
X167620461Y-88060850D01*
X167620461Y-87972768D01*
X167623997Y-87918951D01*
X167639156Y-87876534D01*
X167672768Y-87831279D01*
X167705035Y-87796420D01*
X167755209Y-87747062D01*
X167794193Y-87720547D01*
X167836064Y-87709911D01*
X167883460Y-87708154D01*
X167987333Y-87723528D01*
G36*
X167987333Y-87723528D02*
G01*
X168043590Y-87749117D01*
X168087747Y-87780124D01*
X168120101Y-87814795D01*
X168142438Y-87859520D01*
X168156546Y-87920692D01*
X168164211Y-88004701D01*
X168167220Y-88117940D01*
X168167538Y-88192509D01*
X168167538Y-88483420D01*
X168117773Y-88506095D01*
X168078576Y-88522667D01*
X168059157Y-88528769D01*
X168055442Y-88510610D01*
X168052495Y-88461648D01*
X168050691Y-88390153D01*
X168050308Y-88333385D01*
X168048661Y-88251371D01*
X168044222Y-88186309D01*
X168037740Y-88146467D01*
X168032590Y-88138000D01*
X167997977Y-88146646D01*
X167943640Y-88168823D01*
X167880722Y-88198886D01*
X167820368Y-88231192D01*
X167773721Y-88260098D01*
X167751926Y-88279961D01*
X167751839Y-88280175D01*
X167753714Y-88316935D01*
X167770525Y-88352026D01*
X167800039Y-88380528D01*
X167843116Y-88390061D01*
X167879932Y-88388950D01*
X167932074Y-88388133D01*
X167959444Y-88400349D01*
X167975882Y-88432624D01*
X167977955Y-88438710D01*
X167985081Y-88484739D01*
X167966024Y-88512687D01*
X167916353Y-88526007D01*
X167862697Y-88528470D01*
X167766142Y-88510210D01*
X167716159Y-88484131D01*
X167654429Y-88422868D01*
X167621690Y-88347670D01*
X167618753Y-88268211D01*
X167646424Y-88194167D01*
X167688047Y-88147769D01*
X167729604Y-88121793D01*
X167794922Y-88088907D01*
X167871038Y-88055557D01*
X167883726Y-88050461D01*
X167967333Y-88013565D01*
X168015530Y-87981046D01*
X168031030Y-87948718D01*
X168016550Y-87912394D01*
X167991692Y-87884000D01*
X167932939Y-87849039D01*
X167868293Y-87846417D01*
X167809008Y-87873358D01*
X167766339Y-87927088D01*
X167760739Y-87940950D01*
X167728133Y-87991936D01*
X167680530Y-88029787D01*
X167620461Y-88060850D01*
X167620461Y-87972768D01*
X167623997Y-87918951D01*
X167639156Y-87876534D01*
X167672768Y-87831279D01*
X167705035Y-87796420D01*
X167755209Y-87747062D01*
X167794193Y-87720547D01*
X167836064Y-87709911D01*
X167883460Y-87708154D01*
X167987333Y-87723528D01*
G37*
X165239878Y-81377776D02*
X165345612Y-81378355D01*
X165422132Y-81379922D01*
X165474372Y-81382972D01*
X165507263Y-81387996D01*
X165525737Y-81395489D01*
X165534727Y-81405944D01*
X165539163Y-81419853D01*
X165539594Y-81421654D01*
X165546333Y-81454145D01*
X165558808Y-81518252D01*
X165575719Y-81607151D01*
X165595771Y-81714019D01*
X165617664Y-81832033D01*
X165618429Y-81836178D01*
X165640359Y-81951831D01*
X165660877Y-82054014D01*
X165678659Y-82136598D01*
X165692381Y-82193456D01*
X165700718Y-82218458D01*
X165701116Y-82218901D01*
X165725677Y-82231110D01*
X165776315Y-82251456D01*
X165842095Y-82275545D01*
X165842461Y-82275674D01*
X165925317Y-82306818D01*
X166023000Y-82346491D01*
X166115077Y-82386381D01*
X166119434Y-82388353D01*
X166269407Y-82456420D01*
X166601498Y-82229639D01*
X166703374Y-82160504D01*
X166795657Y-82098697D01*
X166873003Y-82047733D01*
X166930064Y-82011127D01*
X166961495Y-81992394D01*
X166964479Y-81991004D01*
X166987321Y-81997190D01*
X167029982Y-82027035D01*
X167094128Y-82081947D01*
X167181421Y-82163334D01*
X167270535Y-82249922D01*
X167356441Y-82335247D01*
X167433327Y-82413108D01*
X167496564Y-82478697D01*
X167541523Y-82527205D01*
X167563576Y-82553825D01*
X167564396Y-82555195D01*
X167566834Y-82573463D01*
X167557650Y-82603295D01*
X167534574Y-82648721D01*
X167495337Y-82713770D01*
X167437670Y-82802470D01*
X167360795Y-82916657D01*
X167292570Y-83017162D01*
X167231582Y-83107303D01*
X167181356Y-83181849D01*
X167145416Y-83235565D01*
X167127287Y-83263218D01*
X167126146Y-83265095D01*
X167128359Y-83291590D01*
X167145138Y-83343086D01*
X167173142Y-83409851D01*
X167183122Y-83431172D01*
X167226672Y-83526159D01*
X167273134Y-83633937D01*
X167310877Y-83727192D01*
X167338073Y-83796406D01*
X167359675Y-83849006D01*
X167372158Y-83876497D01*
X167373709Y-83878616D01*
X167396668Y-83882124D01*
X167450786Y-83891738D01*
X167528868Y-83906089D01*
X167623719Y-83923807D01*
X167728143Y-83943525D01*
X167834944Y-83963874D01*
X167936926Y-83983486D01*
X168026894Y-84000991D01*
X168097653Y-84015022D01*
X168142006Y-84024209D01*
X168152885Y-84026807D01*
X168164122Y-84033218D01*
X168172605Y-84047697D01*
X168178714Y-84075133D01*
X168182832Y-84120411D01*
X168185341Y-84188420D01*
X168186621Y-84284047D01*
X168187054Y-84412180D01*
X168187077Y-84464701D01*
X168187077Y-84891845D01*
X168084500Y-84912091D01*
X168027431Y-84923070D01*
X167942269Y-84939095D01*
X167839372Y-84958233D01*
X167729096Y-84978551D01*
X167698615Y-84984132D01*
X167596855Y-85003917D01*
X167508205Y-85023373D01*
X167440108Y-85040697D01*
X167400004Y-85054088D01*
X167393323Y-85058079D01*
X167376919Y-85086342D01*
X167353399Y-85141109D01*
X167327316Y-85211588D01*
X167322142Y-85226769D01*
X167287956Y-85320896D01*
X167245523Y-85427101D01*
X167203997Y-85522473D01*
X167203792Y-85522916D01*
X167134640Y-85672525D01*
X167589512Y-86341617D01*
X167297500Y-86634116D01*
X167209180Y-86721170D01*
X167128625Y-86797909D01*
X167060360Y-86860237D01*
X167008908Y-86904056D01*
X166978794Y-86925270D01*
X166974474Y-86926616D01*
X166949111Y-86916016D01*
X166897358Y-86886547D01*
X166824868Y-86841705D01*
X166737294Y-86784984D01*
X166642612Y-86721462D01*
X166546516Y-86656668D01*
X166460837Y-86600287D01*
X166391016Y-86555788D01*
X166342494Y-86526639D01*
X166320782Y-86516308D01*
X166294293Y-86525050D01*
X166244062Y-86548087D01*
X166180451Y-86580631D01*
X166173708Y-86584249D01*
X166088046Y-86627210D01*
X166029306Y-86648279D01*
X165992772Y-86648503D01*
X165973731Y-86628928D01*
X165973620Y-86628654D01*
X165964102Y-86605472D01*
X165941403Y-86550441D01*
X165907282Y-86467822D01*
X165863500Y-86361872D01*
X165811816Y-86236852D01*
X165753992Y-86097020D01*
X165697991Y-85961637D01*
X165636447Y-85812234D01*
X165579939Y-85673832D01*
X165530161Y-85550673D01*
X165488806Y-85447002D01*
X165457568Y-85367059D01*
X165438141Y-85315088D01*
X165432154Y-85295692D01*
X165447168Y-85273443D01*
X165486439Y-85237982D01*
X165538807Y-85198887D01*
X165687941Y-85075245D01*
X165804511Y-84933522D01*
X165887118Y-84776704D01*
X165934366Y-84607775D01*
X165944857Y-84429722D01*
X165937231Y-84347539D01*
X165895682Y-84177031D01*
X165824123Y-84026459D01*
X165726995Y-83897309D01*
X165608734Y-83791064D01*
X165473780Y-83709210D01*
X165326571Y-83653232D01*
X165171544Y-83624615D01*
X165013139Y-83624844D01*
X164855794Y-83655405D01*
X164703946Y-83717782D01*
X164562035Y-83813460D01*
X164502803Y-83867572D01*
X164389203Y-84006520D01*
X164310106Y-84158361D01*
X164264986Y-84318667D01*
X164253316Y-84483012D01*
X164274569Y-84646971D01*
X164328220Y-84806118D01*
X164413740Y-84956025D01*
X164530605Y-85092267D01*
X164661193Y-85198887D01*
X164715588Y-85239642D01*
X164754014Y-85274718D01*
X164767846Y-85295726D01*
X164760603Y-85318635D01*
X164740005Y-85373365D01*
X164707746Y-85455672D01*
X164665521Y-85561315D01*
X164615023Y-85686050D01*
X164557948Y-85825636D01*
X164501854Y-85961670D01*
X164439967Y-86111201D01*
X164382644Y-86249767D01*
X164331644Y-86373107D01*
X164288727Y-86476964D01*
X164255653Y-86557080D01*
X164234181Y-86609195D01*
X164226225Y-86628654D01*
X164207429Y-86648423D01*
X164171074Y-86648365D01*
X164112479Y-86627441D01*
X164026968Y-86584613D01*
X164026292Y-86584249D01*
X163961907Y-86551012D01*
X163909861Y-86526802D01*
X163880512Y-86516404D01*
X163879217Y-86516308D01*
X163857124Y-86526855D01*
X163808348Y-86556184D01*
X163738331Y-86600827D01*
X163652514Y-86657314D01*
X163557388Y-86721462D01*
X163460540Y-86786411D01*
X163373253Y-86842896D01*
X163301181Y-86887421D01*
X163249977Y-86916490D01*
X163225526Y-86926616D01*
X163203010Y-86913307D01*
X163157742Y-86876112D01*
X163094244Y-86819128D01*
X163017039Y-86746449D01*
X162930651Y-86662171D01*
X162902399Y-86634016D01*
X162610287Y-86341416D01*
X162832631Y-86015104D01*
X162900202Y-85914897D01*
X162959507Y-85824963D01*
X163007217Y-85750510D01*
X163040007Y-85696751D01*
X163054548Y-85668894D01*
X163054974Y-85666912D01*
X163047308Y-85640655D01*
X163026689Y-85587837D01*
X162996685Y-85517310D01*
X162975625Y-85470093D01*
X162936248Y-85379694D01*
X162899165Y-85288366D01*
X162870415Y-85211200D01*
X162862605Y-85187692D01*
X162840417Y-85124916D01*
X162818727Y-85076411D01*
X162806813Y-85058079D01*
X162780523Y-85046859D01*
X162723142Y-85030954D01*
X162642118Y-85012167D01*
X162544895Y-84992299D01*
X162501385Y-84984132D01*
X162390896Y-84963829D01*
X162284916Y-84944170D01*
X162193801Y-84927088D01*
X162127908Y-84914518D01*
X162115500Y-84912091D01*
X162012923Y-84891845D01*
X162012923Y-84464701D01*
X162013153Y-84324246D01*
X162014099Y-84217979D01*
X162016141Y-84141013D01*
X162019662Y-84088460D01*
X162025043Y-84055433D01*
X162032666Y-84037045D01*
X162042912Y-84028408D01*
X162047115Y-84026807D01*
X162072470Y-84021127D01*
X162128484Y-84009795D01*
X162207964Y-83994179D01*
X162303712Y-83975647D01*
X162408533Y-83955569D01*
X162515232Y-83935312D01*
X162616613Y-83916246D01*
X162705479Y-83899739D01*
X162774637Y-83887159D01*
X162816889Y-83879875D01*
X162826290Y-83878616D01*
X162834807Y-83861763D01*
X162853660Y-83816870D01*
X162879324Y-83752430D01*
X162889123Y-83727192D01*
X162928648Y-83629686D01*
X162975192Y-83521959D01*
X163016877Y-83431172D01*
X163047550Y-83361753D01*
X163067956Y-83304710D01*
X163074768Y-83269777D01*
X163073682Y-83265095D01*
X163059285Y-83242991D01*
X163026412Y-83193831D01*
X162978590Y-83122848D01*
X162919348Y-83035278D01*
X162852215Y-82936357D01*
X162838941Y-82916830D01*
X162761046Y-82801140D01*
X162703787Y-82713044D01*
X162664881Y-82648486D01*
X162642044Y-82603411D01*
X162632994Y-82573763D01*
X162635448Y-82555485D01*
X162635511Y-82555369D01*
X162654827Y-82531361D01*
X162697551Y-82484947D01*
X162759051Y-82420937D01*
X162834698Y-82344145D01*
X162919861Y-82259382D01*
X162929465Y-82249922D01*
X163036790Y-82145989D01*
X163119615Y-82069675D01*
X163179605Y-82019571D01*
X163218423Y-81994270D01*
X163235520Y-81991004D01*
X163260473Y-82005250D01*
X163312255Y-82038156D01*
X163385520Y-82086208D01*
X163474920Y-82145890D01*
X163575111Y-82213688D01*
X163598501Y-82229639D01*
X163930593Y-82456420D01*
X164080565Y-82388353D01*
X164171770Y-82348685D01*
X164269669Y-82308791D01*
X164353831Y-82276983D01*
X164357538Y-82275674D01*
X164423369Y-82251576D01*
X164474116Y-82231200D01*
X164498842Y-82218936D01*
X164498884Y-82218901D01*
X164506729Y-82196734D01*
X164520066Y-82142217D01*
X164537570Y-82061480D01*
X164557917Y-81960650D01*
X164579782Y-81845856D01*
X164581571Y-81836178D01*
X164603504Y-81717904D01*
X164623640Y-81610542D01*
X164640680Y-81520917D01*
X164653328Y-81455851D01*
X164660284Y-81422168D01*
X164660406Y-81421654D01*
X164664639Y-81407325D01*
X164672871Y-81396507D01*
X164690033Y-81388706D01*
X164721058Y-81383429D01*
X164770878Y-81380182D01*
X164844424Y-81378472D01*
X164946629Y-81377807D01*
X165082425Y-81377693D01*
X165100000Y-81377692D01*
X165239878Y-81377776D01*
G36*
X165239878Y-81377776D02*
G01*
X165345612Y-81378355D01*
X165422132Y-81379922D01*
X165474372Y-81382972D01*
X165507263Y-81387996D01*
X165525737Y-81395489D01*
X165534727Y-81405944D01*
X165539163Y-81419853D01*
X165539594Y-81421654D01*
X165546333Y-81454145D01*
X165558808Y-81518252D01*
X165575719Y-81607151D01*
X165595771Y-81714019D01*
X165617664Y-81832033D01*
X165618429Y-81836178D01*
X165640359Y-81951831D01*
X165660877Y-82054014D01*
X165678659Y-82136598D01*
X165692381Y-82193456D01*
X165700718Y-82218458D01*
X165701116Y-82218901D01*
X165725677Y-82231110D01*
X165776315Y-82251456D01*
X165842095Y-82275545D01*
X165842461Y-82275674D01*
X165925317Y-82306818D01*
X166023000Y-82346491D01*
X166115077Y-82386381D01*
X166119434Y-82388353D01*
X166269407Y-82456420D01*
X166601498Y-82229639D01*
X166703374Y-82160504D01*
X166795657Y-82098697D01*
X166873003Y-82047733D01*
X166930064Y-82011127D01*
X166961495Y-81992394D01*
X166964479Y-81991004D01*
X166987321Y-81997190D01*
X167029982Y-82027035D01*
X167094128Y-82081947D01*
X167181421Y-82163334D01*
X167270535Y-82249922D01*
X167356441Y-82335247D01*
X167433327Y-82413108D01*
X167496564Y-82478697D01*
X167541523Y-82527205D01*
X167563576Y-82553825D01*
X167564396Y-82555195D01*
X167566834Y-82573463D01*
X167557650Y-82603295D01*
X167534574Y-82648721D01*
X167495337Y-82713770D01*
X167437670Y-82802470D01*
X167360795Y-82916657D01*
X167292570Y-83017162D01*
X167231582Y-83107303D01*
X167181356Y-83181849D01*
X167145416Y-83235565D01*
X167127287Y-83263218D01*
X167126146Y-83265095D01*
X167128359Y-83291590D01*
X167145138Y-83343086D01*
X167173142Y-83409851D01*
X167183122Y-83431172D01*
X167226672Y-83526159D01*
X167273134Y-83633937D01*
X167310877Y-83727192D01*
X167338073Y-83796406D01*
X167359675Y-83849006D01*
X167372158Y-83876497D01*
X167373709Y-83878616D01*
X167396668Y-83882124D01*
X167450786Y-83891738D01*
X167528868Y-83906089D01*
X167623719Y-83923807D01*
X167728143Y-83943525D01*
X167834944Y-83963874D01*
X167936926Y-83983486D01*
X168026894Y-84000991D01*
X168097653Y-84015022D01*
X168142006Y-84024209D01*
X168152885Y-84026807D01*
X168164122Y-84033218D01*
X168172605Y-84047697D01*
X168178714Y-84075133D01*
X168182832Y-84120411D01*
X168185341Y-84188420D01*
X168186621Y-84284047D01*
X168187054Y-84412180D01*
X168187077Y-84464701D01*
X168187077Y-84891845D01*
X168084500Y-84912091D01*
X168027431Y-84923070D01*
X167942269Y-84939095D01*
X167839372Y-84958233D01*
X167729096Y-84978551D01*
X167698615Y-84984132D01*
X167596855Y-85003917D01*
X167508205Y-85023373D01*
X167440108Y-85040697D01*
X167400004Y-85054088D01*
X167393323Y-85058079D01*
X167376919Y-85086342D01*
X167353399Y-85141109D01*
X167327316Y-85211588D01*
X167322142Y-85226769D01*
X167287956Y-85320896D01*
X167245523Y-85427101D01*
X167203997Y-85522473D01*
X167203792Y-85522916D01*
X167134640Y-85672525D01*
X167589512Y-86341617D01*
X167297500Y-86634116D01*
X167209180Y-86721170D01*
X167128625Y-86797909D01*
X167060360Y-86860237D01*
X167008908Y-86904056D01*
X166978794Y-86925270D01*
X166974474Y-86926616D01*
X166949111Y-86916016D01*
X166897358Y-86886547D01*
X166824868Y-86841705D01*
X166737294Y-86784984D01*
X166642612Y-86721462D01*
X166546516Y-86656668D01*
X166460837Y-86600287D01*
X166391016Y-86555788D01*
X166342494Y-86526639D01*
X166320782Y-86516308D01*
X166294293Y-86525050D01*
X166244062Y-86548087D01*
X166180451Y-86580631D01*
X166173708Y-86584249D01*
X166088046Y-86627210D01*
X166029306Y-86648279D01*
X165992772Y-86648503D01*
X165973731Y-86628928D01*
X165973620Y-86628654D01*
X165964102Y-86605472D01*
X165941403Y-86550441D01*
X165907282Y-86467822D01*
X165863500Y-86361872D01*
X165811816Y-86236852D01*
X165753992Y-86097020D01*
X165697991Y-85961637D01*
X165636447Y-85812234D01*
X165579939Y-85673832D01*
X165530161Y-85550673D01*
X165488806Y-85447002D01*
X165457568Y-85367059D01*
X165438141Y-85315088D01*
X165432154Y-85295692D01*
X165447168Y-85273443D01*
X165486439Y-85237982D01*
X165538807Y-85198887D01*
X165687941Y-85075245D01*
X165804511Y-84933522D01*
X165887118Y-84776704D01*
X165934366Y-84607775D01*
X165944857Y-84429722D01*
X165937231Y-84347539D01*
X165895682Y-84177031D01*
X165824123Y-84026459D01*
X165726995Y-83897309D01*
X165608734Y-83791064D01*
X165473780Y-83709210D01*
X165326571Y-83653232D01*
X165171544Y-83624615D01*
X165013139Y-83624844D01*
X164855794Y-83655405D01*
X164703946Y-83717782D01*
X164562035Y-83813460D01*
X164502803Y-83867572D01*
X164389203Y-84006520D01*
X164310106Y-84158361D01*
X164264986Y-84318667D01*
X164253316Y-84483012D01*
X164274569Y-84646971D01*
X164328220Y-84806118D01*
X164413740Y-84956025D01*
X164530605Y-85092267D01*
X164661193Y-85198887D01*
X164715588Y-85239642D01*
X164754014Y-85274718D01*
X164767846Y-85295726D01*
X164760603Y-85318635D01*
X164740005Y-85373365D01*
X164707746Y-85455672D01*
X164665521Y-85561315D01*
X164615023Y-85686050D01*
X164557948Y-85825636D01*
X164501854Y-85961670D01*
X164439967Y-86111201D01*
X164382644Y-86249767D01*
X164331644Y-86373107D01*
X164288727Y-86476964D01*
X164255653Y-86557080D01*
X164234181Y-86609195D01*
X164226225Y-86628654D01*
X164207429Y-86648423D01*
X164171074Y-86648365D01*
X164112479Y-86627441D01*
X164026968Y-86584613D01*
X164026292Y-86584249D01*
X163961907Y-86551012D01*
X163909861Y-86526802D01*
X163880512Y-86516404D01*
X163879217Y-86516308D01*
X163857124Y-86526855D01*
X163808348Y-86556184D01*
X163738331Y-86600827D01*
X163652514Y-86657314D01*
X163557388Y-86721462D01*
X163460540Y-86786411D01*
X163373253Y-86842896D01*
X163301181Y-86887421D01*
X163249977Y-86916490D01*
X163225526Y-86926616D01*
X163203010Y-86913307D01*
X163157742Y-86876112D01*
X163094244Y-86819128D01*
X163017039Y-86746449D01*
X162930651Y-86662171D01*
X162902399Y-86634016D01*
X162610287Y-86341416D01*
X162832631Y-86015104D01*
X162900202Y-85914897D01*
X162959507Y-85824963D01*
X163007217Y-85750510D01*
X163040007Y-85696751D01*
X163054548Y-85668894D01*
X163054974Y-85666912D01*
X163047308Y-85640655D01*
X163026689Y-85587837D01*
X162996685Y-85517310D01*
X162975625Y-85470093D01*
X162936248Y-85379694D01*
X162899165Y-85288366D01*
X162870415Y-85211200D01*
X162862605Y-85187692D01*
X162840417Y-85124916D01*
X162818727Y-85076411D01*
X162806813Y-85058079D01*
X162780523Y-85046859D01*
X162723142Y-85030954D01*
X162642118Y-85012167D01*
X162544895Y-84992299D01*
X162501385Y-84984132D01*
X162390896Y-84963829D01*
X162284916Y-84944170D01*
X162193801Y-84927088D01*
X162127908Y-84914518D01*
X162115500Y-84912091D01*
X162012923Y-84891845D01*
X162012923Y-84464701D01*
X162013153Y-84324246D01*
X162014099Y-84217979D01*
X162016141Y-84141013D01*
X162019662Y-84088460D01*
X162025043Y-84055433D01*
X162032666Y-84037045D01*
X162042912Y-84028408D01*
X162047115Y-84026807D01*
X162072470Y-84021127D01*
X162128484Y-84009795D01*
X162207964Y-83994179D01*
X162303712Y-83975647D01*
X162408533Y-83955569D01*
X162515232Y-83935312D01*
X162616613Y-83916246D01*
X162705479Y-83899739D01*
X162774637Y-83887159D01*
X162816889Y-83879875D01*
X162826290Y-83878616D01*
X162834807Y-83861763D01*
X162853660Y-83816870D01*
X162879324Y-83752430D01*
X162889123Y-83727192D01*
X162928648Y-83629686D01*
X162975192Y-83521959D01*
X163016877Y-83431172D01*
X163047550Y-83361753D01*
X163067956Y-83304710D01*
X163074768Y-83269777D01*
X163073682Y-83265095D01*
X163059285Y-83242991D01*
X163026412Y-83193831D01*
X162978590Y-83122848D01*
X162919348Y-83035278D01*
X162852215Y-82936357D01*
X162838941Y-82916830D01*
X162761046Y-82801140D01*
X162703787Y-82713044D01*
X162664881Y-82648486D01*
X162642044Y-82603411D01*
X162632994Y-82573763D01*
X162635448Y-82555485D01*
X162635511Y-82555369D01*
X162654827Y-82531361D01*
X162697551Y-82484947D01*
X162759051Y-82420937D01*
X162834698Y-82344145D01*
X162919861Y-82259382D01*
X162929465Y-82249922D01*
X163036790Y-82145989D01*
X163119615Y-82069675D01*
X163179605Y-82019571D01*
X163218423Y-81994270D01*
X163235520Y-81991004D01*
X163260473Y-82005250D01*
X163312255Y-82038156D01*
X163385520Y-82086208D01*
X163474920Y-82145890D01*
X163575111Y-82213688D01*
X163598501Y-82229639D01*
X163930593Y-82456420D01*
X164080565Y-82388353D01*
X164171770Y-82348685D01*
X164269669Y-82308791D01*
X164353831Y-82276983D01*
X164357538Y-82275674D01*
X164423369Y-82251576D01*
X164474116Y-82231200D01*
X164498842Y-82218936D01*
X164498884Y-82218901D01*
X164506729Y-82196734D01*
X164520066Y-82142217D01*
X164537570Y-82061480D01*
X164557917Y-81960650D01*
X164579782Y-81845856D01*
X164581571Y-81836178D01*
X164603504Y-81717904D01*
X164623640Y-81610542D01*
X164640680Y-81520917D01*
X164653328Y-81455851D01*
X164660284Y-81422168D01*
X164660406Y-81421654D01*
X164664639Y-81407325D01*
X164672871Y-81396507D01*
X164690033Y-81388706D01*
X164721058Y-81383429D01*
X164770878Y-81380182D01*
X164844424Y-81378472D01*
X164946629Y-81377807D01*
X165082425Y-81377693D01*
X165100000Y-81377692D01*
X165239878Y-81377776D01*
G37*
D14*
%TO.C,F1*%
X117010000Y-111860000D02*
X117010000Y-89140000D01*
X120170000Y-111860000D02*
X117010000Y-111860000D01*
X126830000Y-111860000D02*
X123670000Y-111860000D01*
X126830000Y-111860000D02*
X126830000Y-89140000D01*
X120170000Y-89140000D02*
X117010000Y-89140000D01*
X126830000Y-89140000D02*
X123670000Y-89140000D01*
D12*
%TO.C,RV1*%
X111350000Y-111500000D02*
X106450000Y-111500000D01*
X106450000Y-96000000D02*
X106450000Y-111500000D01*
X111350000Y-96000000D02*
X111350000Y-111500000D01*
X111350000Y-96000000D02*
X106450000Y-96000000D01*
D14*
%TO.C,J3*%
X176495000Y-102900000D02*
X176495000Y-113120000D01*
X176495000Y-102900000D02*
X179155000Y-102900000D01*
X176495000Y-113120000D02*
X179155000Y-113120000D01*
X177825000Y-100300000D02*
X179155000Y-100300000D01*
X179155000Y-100300000D02*
X179155000Y-101630000D01*
X179155000Y-102900000D02*
X179155000Y-113120000D01*
%TO.C,J2*%
X161230000Y-105410000D02*
X161230000Y-113090000D01*
X161230000Y-105410000D02*
X163890000Y-105410000D01*
X161230000Y-113090000D02*
X163890000Y-113090000D01*
X162560000Y-102810000D02*
X163890000Y-102810000D01*
X163890000Y-102810000D02*
X163890000Y-104140000D01*
X163890000Y-105410000D02*
X163890000Y-113090000D01*
%TO.C,PS1*%
X152550000Y-85340000D02*
X152550000Y-88340000D01*
X149550000Y-85340000D02*
X152550000Y-85340000D01*
X152310000Y-85580000D02*
X129690000Y-85580000D01*
X152310000Y-85580000D02*
X152310000Y-122500000D01*
X129690000Y-85580000D02*
X129690000Y-122500000D01*
X152310000Y-122500000D02*
X129690000Y-122500000D01*
%TO.C,J1*%
X114300000Y-119140000D02*
X114300000Y-129180000D01*
X114300000Y-119140000D02*
X124540000Y-119140000D01*
X114300000Y-122160000D02*
X124540000Y-122160000D01*
X114300000Y-127060000D02*
X124540000Y-127060000D01*
X114300000Y-128560000D02*
X124540000Y-128560000D01*
X114300000Y-129180000D02*
X116620000Y-129180000D01*
X117220000Y-129180000D02*
X124540000Y-129180000D01*
X124540000Y-119140000D02*
X124540000Y-129180000D01*
X117360000Y-129790000D02*
X116480000Y-129790000D01*
X116920000Y-129180000D01*
X117360000Y-129790000D01*
G36*
X117360000Y-129790000D02*
G01*
X116480000Y-129790000D01*
X116920000Y-129180000D01*
X117360000Y-129790000D01*
G37*
%TO.C,C1*%
X160940000Y-124540000D02*
X160940000Y-119300000D01*
X169180000Y-124540000D02*
X160940000Y-124540000D01*
X169180000Y-124540000D02*
X169180000Y-119300000D01*
X169180000Y-119300000D02*
X160940000Y-119300000D01*
%TD*%
M02*
